<svg xmlns="http://www.w3.org/2000/svg" width="181.387" height="75" viewBox="0 0 181.387 75"><g fill="#FFF"><path d="M16.4 1.407L15.39 4.14c-1.512-.664-2.785-1.167-4.696-1.167-4.618 0-6.767 2.76-6.767 6.554s2.255 6.714 6.235 6.714c1.752 0 3.158-.53 4.087-1.247V11.81H9.657V9.076h7.59v7.376c-1.964 1.884-4.406 2.76-7.404 2.76-5.467 0-9.844-3.37-9.844-9.66C0 3.453 4.14 0 10.11 0c2.202 0 4.563.45 6.29 1.407M29.47.32c3.9 0 6.05 2.626 6.05 5.81 0 2.495-1.38 4.485-3.794 5.334l3.503 7.43h-3.956l-3.05-7.11H23.71v7.11h-3.714V.32h9.474zm-5.76 2.918v5.625h5.043c1.75 0 2.84-1.22 2.84-2.786 0-1.54-1.063-2.84-2.84-2.84H23.71zM51.36 3.238h-9.846v5.12h8.518v2.92h-8.518v4.698h10.084v2.918h-13.8V.32h13.56M71.61 18.894h-3.85l-1.59-4.272h-8.386l-1.592 4.272h-3.715L59.667.292h4.777l7.165 18.602zm-12.738-7.19h6.21l-3.078-8.228h-.053l-3.078 8.227zM84.796 3.238H78.77v15.656h-3.713V3.238h-6.05V.318h15.79M99.886 3.238H90.04v5.12h8.518v2.92H90.04v4.698h10.083v2.918H86.325V.32h13.56M111.978.32c3.9 0 6.05 2.626 6.05 5.81 0 2.495-1.38 4.485-3.795 5.334l3.503 7.43h-3.954l-3.05-7.11h-4.513v7.11h-3.715V.32h9.473zm-5.76 2.918v5.626h5.044c1.75 0 2.84-1.22 2.84-2.787 0-1.54-1.063-2.84-2.84-2.84h-5.043zM15.842 28.893l-.93 2.733c-1.246-.558-2.81-.875-4.032-.875-4.75 0-6.953 2.84-6.953 6.66 0 3.85 2.255 6.61 6.82 6.61 1.672 0 3.316-.48 4.485-.93l.743 2.76c-1.327.582-3.476 1.14-5.97 1.14C4.218 46.99 0 43.54 0 37.438c0-6.263 4.405-9.66 10.19-9.66 2.176 0 4.245.45 5.652 1.115M35.817 46.672H31.97L30.377 42.4h-8.385L20.4 46.672h-3.715l7.19-18.6h4.777l7.165 18.6zm-12.736-7.19h6.21l-3.078-8.228h-.052l-3.08 8.227zM57.947 46.672h-3.715V37.33l.24-4.96h-.054L49.243 45H45.9l-5.175-12.63h-.052l.238 4.96v9.342h-3.714V28.096h5.36l5.148 12.897 4.962-12.897h5.28M70.078 28.096c3.77 0 5.892 1.725 5.892 4.883 0 3.29-2.76 4.06-3.078 4.19 1.54.24 3.768 1.514 3.768 4.433 0 3.316-2.44 5.068-5.652 5.068h-9.604V28.097h8.674zm-4.96 2.92v4.855h4.802c1.592 0 2.493-1.006 2.493-2.387 0-1.405-1.06-2.467-2.52-2.467h-4.776zm0 7.588v5.148h5.253c1.593 0 2.68-1.113 2.68-2.548 0-1.38-.954-2.6-2.785-2.6h-5.148zM88.48 28.096c3.898 0 6.05 2.628 6.05 5.812 0 2.494-1.38 4.485-3.796 5.334l3.503 7.43h-3.954l-3.05-7.11H82.72v7.11h-3.715V28.096h9.474zm-5.76 2.92v5.625h5.042c1.75 0 2.84-1.22 2.84-2.785 0-1.54-1.062-2.84-2.84-2.84H82.72zM96.848 28.096h3.714v18.576h-3.714zM111.96 28.096c1.965 0 3.37.558 4.432 1.167 2.946 1.752 4.193 4.804 4.22 8.04 0 3.29-1.3 6.556-4.22 8.2-1.113.664-2.705 1.168-4.43 1.168h-8.015V28.097h8.014zm-4.297 2.92v12.737h3.423c1.513 0 3.025-.558 4.007-1.54 1.06-1.06 1.592-2.786 1.592-4.908 0-2.44-.744-4.22-2.123-5.227-1.01-.77-2.31-1.062-3.476-1.062h-3.423zM138.353 29.185l-1.008 2.733c-1.513-.664-2.787-1.167-4.697-1.167-4.618 0-6.767 2.76-6.767 6.555s2.257 6.715 6.236 6.715c1.753 0 3.16-.53 4.088-1.25v-3.183h-4.592v-2.733h7.59v7.376c-1.964 1.884-4.404 2.76-7.404 2.76-5.465 0-9.845-3.37-9.845-9.658 0-6.104 4.14-9.554 10.11-9.554 2.204 0 4.564.45 6.29 1.407M155.523 31.016h-9.845v5.122h8.52v2.92h-8.52v4.695h10.084v2.92h-13.798V28.095h13.56M10.35 55.874c4.006 0 6.262 3.052 6.262 6.184 0 3.396-2.283 6.184-6.236 6.184H4.83v6.21H1.113V55.873h9.236zm-5.52 2.92v6.527h4.51c2.018 0 3.345-1.3 3.345-3.236 0-1.805-1.327-3.29-3.344-3.29H4.83zM34.22 74.45h-3.848l-1.592-4.27h-8.385l-1.592 4.27h-3.715l7.19-18.602h4.778L34.22 74.45zm-12.737-7.19h6.21l-3.08-8.227h-.052l-3.077 8.226zM45.06 55.874c3.9 0 6.05 2.628 6.05 5.812 0 2.495-1.38 4.485-3.795 5.334l3.503 7.43h-3.954l-3.052-7.11H39.3v7.11h-3.715V55.875h9.474zm-5.76 2.92v5.625h5.042c1.75 0 2.838-1.22 2.838-2.786 0-1.54-1.06-2.84-2.838-2.84H39.3zM67.516 58.793H61.49V74.45h-3.714V58.793h-6.05v-2.92h15.79M84.994 74.45h-3.9l-8.332-12.87v12.87h-3.715V55.874h3.9L81.28 68.45V55.875h3.714M101.982 58.793h-9.844v5.122h8.516v2.92h-8.516v4.696h10.084v2.92h-13.8V55.874h13.56M114.073 55.874c3.9 0 6.05 2.628 6.05 5.812 0 2.495-1.38 4.485-3.794 5.334l3.502 7.43h-3.953l-3.054-7.11h-4.51v7.11H104.6V55.875h9.473zm-5.758 2.92v5.625h5.042c1.752 0 2.84-1.22 2.84-2.786 0-1.54-1.062-2.84-2.84-2.84h-5.042zM135.312 57.096l-1.062 2.84c-.478-.24-2.6-1.406-5.52-1.406-2.44 0-3.37.954-3.37 2.175 0 1.778 1.938 2.202 3.98 2.707 3.69.903 6.556 1.963 6.554 5.68 0 3.926-3.104 5.677-7.402 5.677-2.707 0-5.6-.743-7.27-1.672l.98-2.893c1.273.584 3.397 1.54 6.21 1.54 2.893 0 3.636-1.035 3.636-2.178 0-1.697-1.7-2.148-4.034-2.732-3.16-.796-6.555-1.697-6.555-5.73 0-3.93 3.184-5.547 7.006-5.547 2.495 0 5.148.714 6.846 1.538M154.376 74.45h-3.716v-7.696h-8.783v7.696h-3.716V55.874h3.717v7.962h8.783v-7.962h3.716M157.802 55.874h3.716V74.45h-3.716zM174.124 55.874c4.007 0 6.263 3.053 6.263 6.184 0 3.396-2.282 6.184-6.235 6.184h-5.547v6.21h-3.715V55.873h9.234zm-5.52 2.92v6.527h4.512c2.017 0 3.343-1.3 3.343-3.236 0-1.805-1.327-3.29-3.344-3.29h-4.512z"/></g></svg>